<svg width="118" height="118" viewBox="0 0 118 118" fill="none" xmlns="http://www.w3.org/2000/svg">
<rect width="118" height="118" fill="#FF659D"/>
<path d="M28.8787 83C29.4548 83 29.9028 82.68 30.1588 82.104L36.7508 66.552C38.9268 61.24 40.9748 55.096 41.9988 51H42.3828C42.4468 55.224 42.5107 63.608 42.8307 69.368L43.6628 81.976C43.7267 82.68 44.1108 83 44.7508 83H54.0308C54.6707 83 55.1188 82.68 55.3748 82.168L74.4468 38.52C74.7668 37.752 74.3828 37.24 73.5508 37.24H64.9748C64.3348 37.24 63.9508 37.56 63.6948 38.136L58.3828 51.768C56.5268 56.632 53.4548 65.976 51.7908 71.544H51.4067C51.4067 65.912 51.1508 57.272 50.8948 53.048L49.8068 38.904C49.7428 38.2 49.3587 37.88 48.6548 37.88H39.6308C39.0548 37.88 38.6068 38.2 38.3507 38.776L32.8468 52.344C30.8628 57.336 27.8547 65.848 26.1268 71.544H25.8067C25.8708 66.168 25.8708 57.208 25.6788 52.792L25.0387 38.328C25.0387 37.624 24.5268 37.24 23.8868 37.24H15.6947C14.9907 37.24 14.5427 37.688 14.6067 38.392L18.4467 81.976C18.5107 82.68 18.8947 83 19.5988 83H28.8787ZM87.7103 83C98.5263 83 104.414 78.072 105.886 69.24C106.718 64.312 105.054 60.664 101.47 58.808C104.606 57.208 106.654 54.2 107.294 50.488C108.574 43 104.094 37.24 95.1343 37.24H79.3903C78.7503 37.24 78.3663 37.624 78.2383 38.264L70.5583 81.784C70.4303 82.488 70.8143 83 71.5823 83H87.7103ZM83.8703 63.352H90.8463C94.8143 63.352 96.1583 65.272 95.7103 68.28C95.0703 72.12 92.3823 73.976 88.7983 73.976H82.0143L83.8703 63.352ZM87.0063 46.008H92.8943C96.4783 46.008 97.6303 47.672 97.1183 50.36C96.6063 53.368 94.5583 55.096 91.2943 55.096H85.4063L87.0063 46.008Z" fill="#FFCC6E"/>
</svg>
